<svg width="114" height="24" viewBox="0 0 114 24" fill="none" xmlns="http://www.w3.org/2000/svg">
<g clip-path="url(#clip0_12_282)">
<path d="M12.751 0.891402H6.15897V1.42512H8.29611V12.2926C8.29611 15.5886 7.40582 16.4789 5.35782 16.4789C4.11097 16.4789 3.84354 15.4994 3.84354 15.0537C3.84354 13.896 3.75439 13.0949 2.68468 13.0949C1.61611 13.0949 1.43896 14.1634 1.43896 14.52C1.43896 16.0343 2.15097 17.192 5.09039 17.192C8.65382 17.192 10.5235 16.0343 10.5235 12.0263V1.42398H12.6618V0.891402H12.751ZM13.6424 14.6971C13.2858 14.6971 12.9293 14.7886 12.751 15.0537C12.4836 15.3211 12.3944 15.5886 12.3944 15.9451C12.3944 16.2994 12.4836 16.568 12.751 16.8366C13.0184 17.1029 13.2858 17.1909 13.6424 17.1909C13.9978 17.1909 14.2653 17.1017 14.5327 16.8366C14.8001 16.5691 14.8893 16.2994 14.8893 15.9451C14.8893 15.5886 14.8001 15.3211 14.5327 15.0537C14.2653 14.7863 13.9978 14.6971 13.6413 14.6971H13.6424ZM28.2504 14.6971C27.8938 14.6971 27.6264 14.7886 27.359 15.0537C27.0927 15.3211 27.0036 15.5886 27.0036 15.9451C27.0036 16.2994 27.0927 16.568 27.359 16.8366C27.6264 17.1029 27.8938 17.1909 28.2504 17.1909C28.607 17.1909 28.9624 17.1017 29.1418 16.8366C29.4081 16.568 29.4973 16.2994 29.4973 15.9451C29.4973 15.5886 29.4081 15.3211 29.1407 15.0537C28.8733 14.7863 28.607 14.6971 28.2493 14.6971H28.2504ZM23.6173 0.891402H17.2036V1.42512H19.0744V13.8971C19.0744 14.8766 18.9853 15.1429 18.8961 15.4103C18.807 15.768 18.5396 15.9463 18.0938 16.1246C17.8276 16.2137 17.3818 16.3017 16.7578 16.3017V16.8366H23.7064V16.3017C23.0824 16.3017 22.6378 16.2137 22.3693 16.1246C21.9247 15.9463 21.6573 15.6789 21.5693 15.4114C21.4504 15.0986 21.3896 14.7667 21.3898 14.432V10.1543H23.0824C28.071 10.1543 29.4961 8.19541 29.4961 5.52226C29.4961 2.76112 28.695 0.890259 23.6173 0.890259V0.891402ZM22.7258 9.53141H21.3898V1.51426H22.5487C26.3784 1.51426 27.2687 3.11769 27.2687 5.6114C27.2687 8.19426 25.7556 9.53141 22.7258 9.53141ZM50.0733 15.3211C49.9558 14.9771 49.8955 14.6161 49.895 14.2526V1.42512H51.5864V0.891402H47.4916C47.4024 1.06969 42.5933 13.0057 42.5933 13.0057L42.5041 13.096C42.415 13.096 42.415 13.096 42.415 13.0069C42.415 13.0069 37.2493 0.980544 37.2493 0.891402H32.703V1.42626H34.663V14.9657C34.663 15.2343 34.5738 15.5017 34.3956 15.768C34.2173 16.0354 33.9498 16.2137 33.6824 16.3017C33.5041 16.3931 33.1487 16.3931 32.791 16.3931V16.9257H37.2458V16.3909C36.8893 16.3909 36.711 16.3017 36.4447 16.3017C36.0881 16.2126 35.9098 16.0343 35.7316 15.7669C35.5533 15.5886 35.4641 15.3211 35.4641 14.9657L35.375 13.8069V3.11655H35.6424C35.6424 3.11655 41.4321 16.656 41.5213 16.8343H41.967L47.4893 3.20683H47.6676V14.2526C47.6676 14.6983 47.5784 15.0537 47.4893 15.4103C47.4001 15.7669 47.1338 15.9451 46.7773 16.1234C46.4041 16.2472 46.0127 16.3071 45.6196 16.3006V16.8354H51.855V16.3006C51.4615 16.3071 51.0697 16.2473 50.6961 16.1234C50.4298 15.9451 50.1624 15.6777 50.0733 15.3211ZM58.535 5.16683C55.1498 5.16683 53.1018 7.39312 53.1018 11.224C53.1018 16.9246 57.5556 17.2811 58.4458 17.2811C60.3167 17.2811 63.8801 16.1234 63.8801 11.136C63.8801 7.21598 61.5636 5.16683 58.535 5.16683ZM58.4458 16.568C55.9521 16.568 55.5064 15.3223 55.5064 11.3131C55.5064 8.19541 55.6847 5.87883 58.4458 5.87883C61.3853 5.87883 61.3853 8.2834 61.3853 11.1337C61.3853 15.1429 60.6733 16.568 58.4458 16.568ZM72.6104 5.34512C70.6493 5.34512 69.9384 6.50283 69.4024 7.74969H69.2241C69.2241 7.74969 68.9578 5.96798 68.8687 5.52226H64.9487V6.14626H67.0859V13.9851C67.0859 14.7863 66.9978 15.3223 66.8207 15.6766C66.6413 16.0343 66.1064 16.3006 65.3053 16.3006H64.9487V17.0137H71.5407V16.3006H71.1841C70.2927 16.3006 69.9384 16.1234 69.7578 15.7669C69.5807 15.4103 69.4916 14.8754 69.4916 14.0743V9.79883C69.4916 8.46169 70.5601 6.85941 71.8081 6.85941C73.1441 6.85941 73.0538 8.81826 74.5693 8.01712C75.2824 7.5714 75.1041 5.34512 72.6104 5.34512ZM98.5304 15.6766C97.8173 15.6766 97.6401 15.3223 97.551 14.6091V8.37369C97.551 7.30398 97.3716 6.68112 96.7499 6.05598C96.1259 5.43312 94.967 5.16455 93.2756 5.16455C91.6721 5.16455 90.5144 5.43312 89.7121 6.05598C89.0001 6.59198 88.6447 7.12569 88.6447 7.92798C88.6447 8.28226 88.7338 8.55083 88.911 8.63998C89.0893 8.81826 89.3567 8.9074 89.623 8.9074C90.2458 8.9074 90.6036 8.55312 90.7807 7.74969C90.8721 7.12569 91.0481 6.77026 91.3167 6.41255C91.671 6.05826 92.2081 5.87883 92.8298 5.87883C93.6321 5.87883 94.255 6.05598 94.5224 6.50169C94.7898 6.94741 94.9681 7.48226 94.9681 8.19312V10.0651C92.9178 10.2434 87.9304 10.688 88.1979 14.4297C88.287 15.8549 89.535 17.1909 91.2264 17.1909C93.0973 17.1909 94.2539 16.1234 95.055 15.32C95.1453 16.1223 95.9464 17.1029 97.2836 17.1029C98.7967 17.1029 99.6881 16.3897 99.7784 14.5189H99.4218C99.4218 15.232 98.9761 15.6777 98.5304 15.6777V15.6766ZM95.1464 14.4309V14.52L95.0573 14.6091C93.9887 15.5897 93.0984 15.9463 92.4744 15.9463C90.871 15.9463 90.6036 14.6091 90.6036 13.9863C90.6036 11.8491 93.543 10.7794 95.1464 10.7794V14.4309ZM111.893 15.5886C111.714 15.2331 111.447 14.6971 111.447 13.8971V8.72912C111.447 8.01712 111.358 7.30398 111.09 6.85941C110.823 6.32455 110.378 5.96798 109.933 5.70055C109.398 5.43312 108.864 5.34512 108.241 5.34512C105.925 5.34512 105.033 6.77026 104.499 7.5714H104.321L103.875 5.52226H100.312V6.14626H102.095V13.9851C102.095 14.6091 102.005 15.0537 101.915 15.3223C101.825 15.6766 101.561 15.9451 101.293 16.0343C101.114 16.1234 100.758 16.2126 100.312 16.2126V16.9246H105.923V16.2126C105.389 16.1234 104.943 16.0343 104.766 15.7669C104.587 15.4994 104.41 14.9646 104.41 14.1634V11.1349C104.41 9.88912 104.41 8.63998 104.856 7.92798C105.301 7.12569 106.191 6.68112 107.082 6.68112C107.974 6.68112 108.418 6.94855 108.687 7.48226C108.953 7.92798 109.041 9.26398 109.041 10.1543V13.896C109.041 14.5189 109.133 14.9646 109.041 15.2331C108.953 15.5874 108.864 15.856 108.595 16.0331C108.418 16.2126 108.061 16.2126 107.705 16.3006V17.0137H113.141V16.3006C112.515 16.0343 112.071 15.8549 111.893 15.5886ZM86.4173 4.63198C86.0607 4.72112 85.8824 5.07769 85.7041 5.52341C85.615 5.96912 85.4367 6.2354 85.1693 6.3234C84.9018 6.41369 84.6356 6.41369 84.3681 6.2354C83.7453 5.70055 82.6756 5.07769 80.7156 5.07769C77.5087 5.07769 76.1727 7.30398 76.1727 9.35198C76.1727 11.7577 77.0641 12.9166 79.111 13.3611C79.2013 13.3611 79.2013 13.5394 79.111 13.5394C77.4196 13.896 75.8161 14.4309 75.8161 16.0343C75.8161 17.0149 76.351 17.5486 77.1533 17.9051C77.9533 18.2606 79.111 18.44 80.5373 18.44C81.783 18.44 82.6744 18.5291 83.2093 18.5291C83.7462 18.5984 84.2623 18.7807 84.7236 19.064C85.0801 19.3314 85.2584 19.7771 85.2584 20.3097C85.2584 21.112 84.8127 21.6469 84.0116 22.1817C83.2116 22.6274 82.2287 22.8057 80.8939 22.8057C79.8253 22.8057 78.8458 22.7154 78.0436 22.1817C77.4207 21.8251 77.3304 21.1131 77.4207 20.5783C77.511 20.0434 77.3304 19.5097 76.7076 19.3314C76.5181 19.2896 76.3201 19.3105 76.1435 19.3909C75.9669 19.4713 75.8211 19.6068 75.7281 19.7771C75.5487 20.0423 75.4596 20.3989 75.4596 20.8446C75.4596 22.1806 76.5293 22.8034 77.3304 23.0709C78.5773 23.4263 79.3807 23.5166 80.4481 23.5166C81.9636 23.5166 83.1201 23.2491 84.0116 22.8926C84.903 22.4469 85.4378 21.9131 85.7933 21.2891C86.1487 20.6663 86.3281 20.0423 86.3281 19.4183C86.3281 18.6171 86.1487 17.904 85.7933 17.4594C84.6356 15.9451 83.031 16.1223 79.4687 15.9451C77.7761 15.9451 77.4196 15.5886 77.4196 15.0537C77.4196 14.2526 78.0436 13.9851 80.5373 13.5394C83.031 13.1829 85.3464 12.2034 85.3464 9.26398C85.3464 8.37255 85.1693 7.66055 84.9007 7.12683C85.4367 7.21483 85.8824 7.21483 86.327 7.12683C86.863 6.94855 87.1281 6.68112 87.3076 6.41369C87.4858 6.05712 87.5738 5.70055 87.3967 5.43312C87.4858 4.72112 87.0401 4.45369 86.4173 4.63198ZM80.8058 13.0057C79.2927 13.0057 78.4893 12.4697 78.4893 9.44226C78.4893 7.30512 79.2024 5.70055 80.8058 5.70055C82.6767 5.70055 83.2104 7.12569 83.2104 9.35312C83.2104 12.56 82.231 13.0057 80.8058 13.0057Z" fill="#ADADAD"/>
</g>
<defs>
<clipPath id="clip0_12_282">
<rect width="113" height="24" fill="white" transform="translate(0.800049)"/>
</clipPath>
</defs>
</svg>
