<svg width="158" height="24" viewBox="0 0 158 24" fill="none" xmlns="http://www.w3.org/2000/svg">
<path d="M3.6989 16.9288H10.2973L10.3331 17.9835H3.63924L3.6989 16.9288ZM5.10687 23.2569C5.10687 23.3928 5.05914 23.5046 4.96369 23.5925C4.87619 23.6724 4.72903 23.7124 4.52221 23.7124H0.584665C0.3858 23.7124 0.238639 23.6724 0.143183 23.5925C0.0477278 23.5046 0 23.3928 0 23.2569C0 23.1451 0.0278412 23.0572 0.0835236 22.9933C0.147161 22.9213 0.238639 22.8494 0.357958 22.7775L0.692053 22.6457C0.96251 22.5178 1.19717 22.3261 1.39604 22.0704C1.5949 21.8067 1.78184 21.3873 1.95684 20.812L5.46483 9.34231C5.58415 8.94281 5.61199 8.64318 5.54835 8.44343C5.48472 8.23569 5.32165 8.0719 5.05914 7.95205C4.87619 7.85617 4.74494 7.76828 4.66539 7.68838C4.5938 7.60848 4.558 7.5086 4.558 7.38875C4.558 7.24493 4.60573 7.13307 4.70119 7.05317C4.8046 6.97327 4.95573 6.93332 5.1546 6.93332H11.4547C11.6535 6.93332 11.8007 6.97327 11.8961 7.05317C11.9996 7.13307 12.0513 7.24493 12.0513 7.38875C12.0513 7.51659 12.0115 7.62446 11.9319 7.71235C11.8524 7.79225 11.7331 7.86416 11.574 7.92808C11.3831 7.992 11.2677 8.08788 11.228 8.21572C11.1961 8.33557 11.224 8.53532 11.3115 8.81497L15.3683 21.5311C15.4797 21.8906 15.599 22.1583 15.7263 22.3341C15.8615 22.5099 16.0326 22.6337 16.2394 22.7056C16.4223 22.7855 16.5456 22.8654 16.6093 22.9453C16.6729 23.0252 16.7047 23.1291 16.7047 23.2569C16.7047 23.3928 16.657 23.5046 16.5615 23.5925C16.4661 23.6724 16.3149 23.7124 16.1081 23.7124H10.2257C10.0189 23.7124 9.86772 23.6724 9.77226 23.5925C9.67681 23.5046 9.62908 23.3928 9.62908 23.2569C9.62908 23.1371 9.6609 23.0412 9.72454 22.9693C9.79613 22.8974 9.90351 22.8335 10.0467 22.7775L10.5598 22.6457C10.7666 22.5738 10.87 22.4699 10.87 22.3341C10.878 22.1982 10.8382 21.9825 10.7507 21.6869L6.66996 8.63519L7.07564 8.14381L3.25742 20.6682C3.14606 21.0357 3.11026 21.3433 3.15003 21.591C3.19776 21.8387 3.31708 22.0464 3.50799 22.2142C3.6989 22.382 3.96141 22.5298 4.2955 22.6577L4.71312 22.7895C4.84039 22.8454 4.93585 22.9094 4.99948 22.9813C5.07108 23.0452 5.10687 23.1371 5.10687 23.2569Z" fill="white"/>
<path d="M22.8405 23.7363H21.349C21.1422 23.7363 20.9632 23.6884 20.8121 23.5925C20.661 23.4966 20.5417 23.3328 20.4541 23.1011L17.3399 14.1363C17.2604 13.9126 17.1808 13.7608 17.1013 13.6809C17.0297 13.593 16.9422 13.5331 16.8388 13.5011L16.4569 13.3932C16.3456 13.3533 16.266 13.3014 16.2183 13.2374C16.1706 13.1735 16.1467 13.0896 16.1467 12.9858C16.1467 12.8499 16.1905 12.7461 16.278 12.6741C16.3734 12.6022 16.4967 12.5663 16.6479 12.5663H22.2917C22.4508 12.5663 22.5741 12.6022 22.6616 12.6741C22.757 12.7461 22.8047 12.8499 22.8047 12.9858C22.8047 13.0896 22.7729 13.1735 22.7093 13.2374C22.6536 13.3014 22.5582 13.3493 22.4229 13.3813L21.9576 13.4891C21.7428 13.5291 21.6115 13.629 21.5638 13.7888C21.524 13.9406 21.5718 14.2162 21.707 14.6157L23.8786 21.2075L22.9599 22.4659L25.6923 14.4L26.5633 14.9513L23.7116 23.161C23.632 23.3848 23.5127 23.5366 23.3536 23.6165C23.1945 23.6964 23.0235 23.7363 22.8405 23.7363ZM30.3696 23.7363H28.9139C28.715 23.7363 28.5361 23.6884 28.377 23.5925C28.2258 23.4886 28.1105 23.3248 28.0309 23.1011L25.0122 14.1363C24.9326 13.8966 24.8531 13.7368 24.7735 13.6569C24.7019 13.577 24.6184 13.5211 24.5229 13.4891L24.2127 13.4052C24.0934 13.3573 24.0099 13.3014 23.9621 13.2374C23.9144 13.1735 23.8906 13.0896 23.8906 12.9858C23.8906 12.7061 24.0616 12.5663 24.4036 12.5663H29.9281C30.2622 12.5663 30.4293 12.7061 30.4293 12.9858C30.4293 13.0896 30.4014 13.1775 30.3457 13.2494C30.29 13.3133 30.2026 13.3573 30.0832 13.3813L29.4986 13.4891C29.2758 13.5291 29.1446 13.629 29.1048 13.7888C29.073 13.9406 29.1167 14.2042 29.2361 14.5798L31.3599 21.2315L30.477 22.4899L32.8037 14.9873C32.9708 14.4839 33.0225 14.1243 32.9588 13.9086C32.9031 13.6849 32.7441 13.5451 32.4816 13.4891L32.052 13.3813C31.9168 13.3493 31.8173 13.3014 31.7537 13.2374C31.698 13.1735 31.6702 13.0896 31.6702 12.9858C31.6702 12.8499 31.7139 12.7461 31.8014 12.6741C31.8969 12.6022 32.0202 12.5663 32.1713 12.5663H34.9753C35.1344 12.5663 35.2577 12.6022 35.3452 12.6741C35.4407 12.7461 35.4884 12.8499 35.4884 12.9858C35.4884 13.0736 35.4645 13.1535 35.4168 13.2255C35.3691 13.2894 35.2736 13.3453 35.1304 13.3932L34.8441 13.4771C34.677 13.5411 34.5219 13.6849 34.3787 13.9086C34.2355 14.1243 34.0884 14.4559 33.9372 14.9034L31.2526 23.161C31.173 23.3848 31.0497 23.5366 30.8827 23.6165C30.7236 23.6964 30.5526 23.7363 30.3696 23.7363Z" fill="white"/>
<path d="M46.8213 16.9408C46.8213 17.2764 46.7259 17.5401 46.535 17.7318C46.352 17.9156 46.0776 18.0075 45.7117 18.0075H38.3854V17.2404H42.4065C42.7167 17.2404 42.8718 17.0846 42.8718 16.773C42.8718 15.5665 42.7128 14.6836 42.3946 14.1243C42.0764 13.557 41.6787 13.2734 41.2014 13.2734C40.8355 13.2734 40.5093 13.4012 40.223 13.6569C39.9445 13.9126 39.7218 14.3081 39.5548 14.8434C39.3877 15.3788 39.3042 16.0579 39.3042 16.8809C39.3042 18.4389 39.6462 19.5935 40.3303 20.3446C41.0144 21.0876 41.9252 21.4592 43.0628 21.4592C43.7707 21.4592 44.3793 21.3114 44.8884 21.0157C45.3974 20.7201 45.7713 20.2926 46.01 19.7333C46.1213 19.6055 46.2128 19.5216 46.2844 19.4816C46.356 19.4337 46.4236 19.4097 46.4872 19.4097C46.5827 19.4097 46.6543 19.4577 46.702 19.5536C46.7577 19.6414 46.7816 19.7533 46.7736 19.8891C46.7577 20.6402 46.523 21.3273 46.0696 21.9506C45.6242 22.5738 45.0116 23.0732 44.2321 23.4487C43.4525 23.8162 42.5576 24 41.5474 24C40.4258 24 39.4235 23.7683 38.5406 23.3049C37.6655 22.8335 36.9775 22.1783 36.4763 21.3393C35.9752 20.4924 35.7246 19.5056 35.7246 18.379C35.7246 17.1565 35.9633 16.0899 36.4405 15.179C36.9178 14.2602 37.6059 13.5491 38.5048 13.0457C39.4036 12.5343 40.4735 12.2786 41.7145 12.2786C42.7963 12.2786 43.715 12.4824 44.4707 12.8899C45.2344 13.2894 45.8151 13.8407 46.2128 14.5438C46.6185 15.2389 46.8213 16.0379 46.8213 16.9408Z" fill="white"/>
<path d="M53.1971 23.0772C53.6903 23.0772 54.0681 22.9573 54.3306 22.7176C54.6011 22.4699 54.7363 22.1623 54.7363 21.7948C54.7363 21.5471 54.6806 21.3233 54.5693 21.1236C54.4659 20.9159 54.263 20.7281 53.9607 20.5603C53.6585 20.3845 53.2209 20.2247 52.6482 20.0809C51.4312 19.8012 50.4885 19.4617 49.8203 19.0622C49.1601 18.6627 48.7027 18.2072 48.4482 17.6959C48.1936 17.1765 48.0664 16.5972 48.0664 15.958C48.0664 14.7995 48.4641 13.8966 49.2595 13.2494C50.055 12.6022 51.1846 12.2786 52.6482 12.2786C53.1891 12.2786 53.6266 12.3266 53.9607 12.4225C54.3028 12.5104 54.5732 12.6022 54.7721 12.6981C54.971 12.786 55.134 12.83 55.2613 12.83C55.4124 12.83 55.5636 12.786 55.7147 12.6981C55.8659 12.6022 56.017 12.5064 56.1681 12.4105C56.3193 12.3146 56.4664 12.2667 56.6096 12.2667C56.713 12.2667 56.8085 12.3026 56.896 12.3745C56.9835 12.4384 57.0511 12.5623 57.0988 12.7461L57.7551 15.5266C57.8267 15.7743 57.8466 15.974 57.8147 16.1258C57.7829 16.2697 57.6954 16.3695 57.5522 16.4255C57.4091 16.4814 57.2818 16.4854 57.1704 16.4374C57.0591 16.3815 56.9517 16.2776 56.8483 16.1258C56.4267 15.4067 56.0011 14.8315 55.5715 14.4C55.1499 13.9685 54.7164 13.6569 54.271 13.4652C53.8335 13.2734 53.3681 13.1775 52.8749 13.1775C52.2942 13.1775 51.8567 13.3054 51.5624 13.561C51.2681 13.8087 51.1209 14.1403 51.1209 14.5558C51.1209 14.8275 51.1885 15.0712 51.3238 15.2869C51.459 15.5026 51.7096 15.7024 52.0755 15.8861C52.4494 16.0619 52.9903 16.2297 53.6982 16.3895C54.7085 16.6212 55.5119 16.9248 56.1085 17.3004C56.7051 17.6679 57.1346 18.1114 57.3971 18.6307C57.6596 19.1421 57.7909 19.7293 57.7909 20.3925C57.7909 21.1196 57.6039 21.7548 57.2301 22.2981C56.8562 22.8414 56.3471 23.2609 55.7028 23.5566C55.0585 23.8522 54.3227 24 53.4954 24C52.9863 24 52.5687 23.9441 52.2425 23.8322C51.9164 23.7283 51.6499 23.6245 51.4431 23.5206C51.2442 23.4087 51.0772 23.3528 50.9419 23.3528C50.7988 23.3528 50.6436 23.4047 50.4766 23.5086C50.3175 23.6125 50.1584 23.7164 49.9993 23.8202C49.8402 23.9241 49.6931 23.976 49.5578 23.976C49.4465 23.976 49.351 23.9321 49.2715 23.8442C49.1919 23.7643 49.1362 23.6245 49.1044 23.4247L48.6629 20.9198C48.6232 20.6562 48.6192 20.4604 48.651 20.3326C48.6908 20.2047 48.7743 20.1129 48.9016 20.0569C49.0448 19.993 49.1681 19.997 49.2715 20.0689C49.3828 20.1328 49.4982 20.2487 49.6175 20.4165C50.2061 21.3753 50.7988 22.0584 51.3954 22.4659C51.992 22.8734 52.5925 23.0772 53.1971 23.0772Z" fill="white"/>
<path d="M65.5748 12.2786C66.7919 12.2786 67.8618 12.5263 68.7845 13.0217C69.7072 13.5171 70.4271 14.2082 70.9442 15.0951C71.4612 15.982 71.7198 17.0087 71.7198 18.1753C71.7198 19.2939 71.4493 20.2926 70.9084 21.1715C70.3754 22.0424 69.6356 22.7336 68.689 23.2449C67.7424 23.7483 66.6487 24 65.4078 24C64.1986 24 63.1327 23.7523 62.21 23.2569C61.2873 22.7536 60.5674 22.0624 60.0503 21.1835C59.5333 20.3046 59.2747 19.2899 59.2747 18.1393C59.2747 17.0127 59.5412 16.01 60.0742 15.1311C60.6151 14.2442 61.3588 13.5491 62.3054 13.0457C63.252 12.5343 64.3418 12.2786 65.5748 12.2786ZM66.3504 22.9813C66.7561 22.9174 67.0782 22.6856 67.3169 22.2861C67.5555 21.8866 67.6947 21.3193 67.7345 20.5843C67.7822 19.8412 67.7106 18.9223 67.5197 17.8277C67.3367 16.7411 67.1021 15.8542 66.8157 15.167C66.5373 14.4719 66.2151 13.9685 65.8492 13.6569C65.4833 13.3453 65.0856 13.2295 64.656 13.3094C64.2424 13.3733 63.9163 13.605 63.6776 14.0045C63.439 14.404 63.2998 14.9753 63.26 15.7183C63.2282 16.4534 63.3038 17.3683 63.4867 18.4629C63.6697 19.5336 63.9043 20.4165 64.1907 21.1116C64.4771 21.8067 64.8032 22.3101 65.1691 22.6217C65.535 22.9253 65.9288 23.0452 66.3504 22.9813Z" fill="white"/>
<path d="M78.0739 12.9378V22.0584C78.0739 22.2742 78.1017 22.4379 78.1574 22.5498C78.2131 22.6537 78.3006 22.7256 78.4199 22.7655L78.8375 22.8854C79.0284 22.9733 79.1239 23.1051 79.1239 23.2809C79.1239 23.5685 78.9409 23.7124 78.575 23.7124H73.5039C73.313 23.7124 73.1738 23.6764 73.0863 23.6045C73.0068 23.5246 72.967 23.4247 72.967 23.3049C72.967 23.209 72.9949 23.1251 73.0505 23.0532C73.1062 22.9813 73.1977 22.9213 73.325 22.8734L73.7545 22.7655C73.8738 22.7176 73.9613 22.6457 74.017 22.5498C74.0727 22.4459 74.1005 22.2901 74.1005 22.0824V14.9273C74.1005 14.7595 74.0727 14.6397 74.017 14.5678C73.9693 14.4879 73.8897 14.4359 73.7784 14.412L73.2534 14.376C73.142 14.3441 73.0585 14.3001 73.0028 14.2442C72.9551 14.1803 72.9312 14.1004 72.9312 14.0045C72.9312 13.9006 72.963 13.8127 73.0267 13.7408C73.0983 13.6689 73.2176 13.605 73.3846 13.5491L76.4034 12.5543C76.65 12.4584 76.8489 12.3905 77 12.3506C77.1511 12.3106 77.2943 12.2906 77.4296 12.2906C77.6443 12.2906 77.8034 12.3506 77.9068 12.4704C78.0182 12.5903 78.0739 12.7461 78.0739 12.9378ZM77.7159 15.6344L77.2625 15.167L77.6801 14.7835C78.6586 13.8567 79.5216 13.2095 80.2694 12.8419C81.0251 12.4664 81.7211 12.2786 82.3575 12.2786C83.2961 12.2786 84.0478 12.5783 84.6126 13.1775C85.1774 13.7768 85.4598 14.6197 85.4598 15.7064V22.0824C85.4598 22.3061 85.4876 22.4659 85.5433 22.5618C85.599 22.6577 85.6865 22.7296 85.8058 22.7775L86.1518 22.8854C86.3427 22.9733 86.4382 23.1051 86.4382 23.2809C86.4382 23.5685 86.2512 23.7124 85.8774 23.7124H80.9972C80.6472 23.7124 80.4722 23.5685 80.4722 23.2809C80.4722 23.1051 80.5677 22.9733 80.7586 22.8854L81.1404 22.7775C81.2756 22.7296 81.3711 22.6497 81.4268 22.5378C81.4824 22.418 81.5103 22.2422 81.5103 22.0105V16.2337C81.5103 15.6504 81.3751 15.207 81.1046 14.9034C80.8341 14.5997 80.4643 14.4479 79.9949 14.4479C79.6767 14.4479 79.3625 14.5119 79.0523 14.6397C78.75 14.7675 78.4478 14.9673 78.1455 15.2389L77.7159 15.6344ZM85.1018 15.6344L84.6484 15.167L85.0541 14.7595C85.9211 13.8886 86.6967 13.2574 87.3808 12.8659C88.0649 12.4744 88.7291 12.2786 89.3734 12.2786C90.2723 12.2786 90.9922 12.5823 91.5331 13.1895C92.074 13.7888 92.4002 14.6317 92.5115 15.7183L93.2036 22.0704C93.2275 22.2941 93.2633 22.4579 93.311 22.5618C93.3587 22.6657 93.4422 22.7376 93.5615 22.7775L93.9076 22.8854C94.0269 22.9253 94.1144 22.9813 94.1701 23.0532C94.2258 23.1251 94.2536 23.209 94.2536 23.3049C94.2536 23.4327 94.2099 23.5326 94.1224 23.6045C94.0428 23.6764 93.9076 23.7124 93.7167 23.7124H88.6456C88.2956 23.7124 88.1206 23.5685 88.1206 23.2809C88.1206 23.1051 88.2121 22.9733 88.395 22.8854L88.7888 22.7775C88.924 22.7296 89.0234 22.6457 89.0871 22.5258C89.1587 22.406 89.1825 22.2262 89.1587 21.9865L88.5621 16.2337C88.5064 15.6504 88.3592 15.207 88.1206 14.9034C87.8819 14.5997 87.5399 14.4479 87.0944 14.4479C86.8319 14.4479 86.5694 14.5158 86.3069 14.6517C86.0444 14.7795 85.7819 14.9673 85.5194 15.215L85.1018 15.6344Z" fill="white"/>
<path d="M106.038 16.9408C106.038 17.2764 105.943 17.5401 105.752 17.7318C105.569 17.9156 105.294 18.0075 104.929 18.0075H97.6024V17.2404H101.623C101.934 17.2404 102.089 17.0846 102.089 16.773C102.089 15.5665 101.93 14.6836 101.612 14.1243C101.293 13.557 100.896 13.2734 100.418 13.2734C100.052 13.2734 99.7263 13.4012 99.4399 13.6569C99.1615 13.9126 98.9388 14.3081 98.7717 14.8434C98.6047 15.3788 98.5211 16.0579 98.5211 16.8809C98.5211 18.4389 98.8632 19.5935 99.5473 20.3446C100.231 21.0876 101.142 21.4592 102.28 21.4592C102.988 21.4592 103.596 21.3114 104.105 21.0157C104.614 20.7201 104.988 20.2926 105.227 19.7333C105.338 19.6055 105.43 19.5216 105.501 19.4816C105.573 19.4337 105.641 19.4097 105.704 19.4097C105.8 19.4097 105.871 19.4577 105.919 19.5536C105.975 19.6414 105.998 19.7533 105.991 19.8891C105.975 20.6402 105.74 21.3273 105.287 21.9506C104.841 22.5738 104.229 23.0732 103.449 23.4487C102.669 23.8162 101.775 24 100.764 24C99.6427 24 98.6405 23.7683 97.7575 23.3049C96.8825 22.8335 96.1944 22.1783 95.6933 21.3393C95.1921 20.4924 94.9416 19.5056 94.9416 18.379C94.9416 17.1565 95.1802 16.0899 95.6575 15.179C96.1347 14.2602 96.8228 13.5491 97.7217 13.0457C98.6206 12.5343 99.6905 12.2786 100.931 12.2786C102.013 12.2786 102.932 12.4824 103.688 12.8899C104.451 13.2894 105.032 13.8407 105.43 14.5438C105.835 15.2389 106.038 16.0379 106.038 16.9408Z" fill="white"/>
<path d="M107.641 23.2569C107.641 23.0012 107.776 22.8295 108.047 22.7416L108.739 22.5858C108.922 22.5378 109.057 22.4659 109.145 22.37C109.232 22.2742 109.276 22.1503 109.276 21.9985V8.65916C109.276 8.49936 109.232 8.37152 109.145 8.27564C109.057 8.17976 108.922 8.10785 108.739 8.05991L108.035 7.89212C107.772 7.81222 107.641 7.64443 107.641 7.38875C107.641 7.24493 107.689 7.13307 107.784 7.05317C107.88 6.97327 108.027 6.93332 108.226 6.93332H114.884C116.34 6.93332 117.668 7.14905 118.869 7.58051C120.07 8.00398 121.104 8.61921 121.972 9.42621C122.839 10.2252 123.507 11.188 123.976 12.3146C124.453 13.4332 124.692 14.6876 124.692 16.0779C124.692 17.596 124.334 18.9303 123.618 20.0809C122.91 21.2235 121.904 22.1144 120.599 22.7536C119.303 23.3928 117.764 23.7124 115.982 23.7124H108.226C108.027 23.7124 107.88 23.6724 107.784 23.5925C107.689 23.5046 107.641 23.3928 107.641 23.2569ZM115.648 22.7056C116.499 22.7056 117.254 22.4699 117.915 21.9985C118.583 21.5271 119.104 20.788 119.478 19.7813C119.86 18.7745 120.05 17.4722 120.05 15.8741C120.05 14.6037 119.923 13.4771 119.669 12.4944C119.422 11.5116 119.056 10.6846 118.571 10.0135C118.094 9.33432 117.517 8.81896 116.841 8.4674C116.165 8.11584 115.405 7.94006 114.562 7.94006H113.75V21.7828C113.75 22.0944 113.838 22.3261 114.013 22.4779C114.188 22.6297 114.438 22.7056 114.765 22.7056H115.648Z" fill="white"/>
<path d="M137.08 16.9408C137.08 17.2764 136.985 17.5401 136.794 17.7318C136.611 17.9156 136.336 18.0075 135.97 18.0075H128.644V17.2404H132.665C132.975 17.2404 133.13 17.0846 133.13 16.773C133.13 15.5665 132.971 14.6836 132.653 14.1243C132.335 13.557 131.937 13.2734 131.46 13.2734C131.094 13.2734 130.768 13.4012 130.482 13.6569C130.203 13.9126 129.98 14.3081 129.813 14.8434C129.646 15.3788 129.563 16.0579 129.563 16.8809C129.563 18.4389 129.905 19.5935 130.589 20.3446C131.273 21.0876 132.184 21.4592 133.321 21.4592C134.029 21.4592 134.638 21.3114 135.147 21.0157C135.656 20.7201 136.03 20.2926 136.269 19.7333C136.38 19.6055 136.471 19.5216 136.543 19.4816C136.615 19.4337 136.682 19.4097 136.746 19.4097C136.841 19.4097 136.913 19.4577 136.961 19.5536C137.016 19.6414 137.04 19.7533 137.032 19.8891C137.016 20.6402 136.782 21.3273 136.328 21.9506C135.883 22.5738 135.27 23.0732 134.491 23.4487C133.711 23.8162 132.816 24 131.806 24C130.684 24 129.682 23.7683 128.799 23.3049C127.924 22.8335 127.236 22.1783 126.735 21.3393C126.234 20.4924 125.983 19.5056 125.983 18.379C125.983 17.1565 126.222 16.0899 126.699 15.179C127.176 14.2602 127.865 13.5491 128.763 13.0457C129.662 12.5343 130.732 12.2786 131.973 12.2786C133.055 12.2786 133.974 12.4824 134.729 12.8899C135.493 13.2894 136.074 13.8407 136.471 14.5438C136.877 15.2389 137.08 16.0379 137.08 16.9408Z" fill="white"/>
<path d="M144.816 23.7483H143.265C143.058 23.7483 142.879 23.6964 142.728 23.5925C142.585 23.4886 142.465 23.3248 142.37 23.1011L138.874 14.1843C138.778 13.9526 138.695 13.7888 138.623 13.6929C138.552 13.597 138.464 13.5371 138.361 13.5131L137.991 13.4052C137.872 13.3573 137.784 13.3014 137.728 13.2374C137.681 13.1735 137.657 13.0896 137.657 12.9858C137.657 12.8499 137.701 12.7461 137.788 12.6741C137.883 12.6022 138.011 12.5663 138.17 12.5663H144.088C144.422 12.5663 144.589 12.7061 144.589 12.9858C144.589 13.0896 144.557 13.1735 144.494 13.2374C144.438 13.3014 144.343 13.3533 144.207 13.3932L143.754 13.4891C143.396 13.569 143.177 13.6929 143.098 13.8607C143.026 14.0285 143.066 14.3041 143.217 14.6876L145.794 21.5551L144.947 22.4539L147.656 14.8554C147.815 14.416 147.851 14.0964 147.763 13.8966C147.676 13.6969 147.465 13.561 147.131 13.4891L146.665 13.3932C146.53 13.3533 146.431 13.3014 146.367 13.2374C146.311 13.1735 146.284 13.0896 146.284 12.9858C146.284 12.8499 146.327 12.7461 146.415 12.6741C146.51 12.6022 146.634 12.5663 146.785 12.5663H149.887C150.046 12.5663 150.169 12.6022 150.257 12.6741C150.352 12.7461 150.4 12.8499 150.4 12.9858C150.4 13.0736 150.372 13.1535 150.317 13.2255C150.269 13.2894 150.173 13.3453 150.03 13.3932L149.72 13.4652C149.537 13.5211 149.378 13.6489 149.243 13.8487C149.107 14.0484 148.952 14.384 148.777 14.8554L145.699 23.173C145.611 23.3968 145.488 23.5486 145.329 23.6285C145.178 23.7084 145.007 23.7483 144.816 23.7483Z" fill="white"/>
<circle cx="152.534" cy="4.8" r="4.8" fill="#007AFF"/>
<path d="M151.502 3.2426V6.35743H151.142V3.63804H151.125L150.4 4.14298V3.75971L151.142 3.2426H151.502Z" fill="white"/>
<path d="M152.435 6.38176C152.363 6.38176 152.302 6.35489 152.251 6.30116C152.2 6.24742 152.174 6.18303 152.174 6.108C152.174 6.03297 152.2 5.96858 152.251 5.91484C152.302 5.8611 152.363 5.83423 152.435 5.83423C152.506 5.83423 152.568 5.8611 152.619 5.91484C152.67 5.96858 152.696 6.03297 152.696 6.108C152.696 6.15768 152.684 6.20331 152.66 6.24488C152.636 6.28645 152.605 6.31991 152.565 6.34526C152.527 6.3696 152.483 6.38176 152.435 6.38176Z" fill="white"/>
<path d="M154.168 6.40001C153.95 6.40001 153.764 6.33766 153.61 6.21294C153.457 6.08721 153.339 5.90521 153.258 5.66693C153.177 5.42764 153.136 5.13867 153.136 4.80001C153.136 4.46338 153.177 4.17593 153.258 3.93766C153.34 3.69836 153.458 3.51586 153.612 3.39013C153.766 3.26338 153.952 3.20001 154.168 3.20001C154.385 3.20001 154.57 3.26338 154.723 3.39013C154.878 3.51586 154.996 3.69836 155.077 3.93766C155.159 4.17593 155.2 4.46338 155.2 4.80001C155.2 5.13867 155.16 5.42764 155.078 5.66693C154.997 5.90521 154.88 6.08721 154.726 6.21294C154.573 6.33766 154.387 6.40001 154.168 6.40001ZM154.168 6.06541C154.385 6.06541 154.553 5.95591 154.673 5.7369C154.792 5.51788 154.852 5.20559 154.852 4.80001C154.852 4.5303 154.825 4.30065 154.77 4.11104C154.716 3.92143 154.637 3.77695 154.535 3.67758C154.433 3.57821 154.311 3.52853 154.168 3.52853C153.954 3.52853 153.786 3.63956 153.665 3.86161C153.545 4.08265 153.484 4.39545 153.484 4.80001C153.484 5.06972 153.511 5.29887 153.565 5.48747C153.619 5.67606 153.697 5.81953 153.799 5.91788C153.901 6.01624 154.024 6.06541 154.168 6.06541Z" fill="white"/>
</svg>
