<svg width="166" height="24" viewBox="0 0 166 24" fill="none" xmlns="http://www.w3.org/2000/svg">
<g clip-path="url(#clip0_12_285)">
<path fill-rule="evenodd" clip-rule="evenodd" d="M90.6447 11.1445C90.6447 11.1445 89.05 10.1584 88.0639 9.77681C88.0639 9.77681 85.0115 8.36211 84.4059 7.68902C84.4059 7.68902 83.2162 6.56789 83.9128 5.26571C83.9128 5.26571 84.2044 4.41361 85.4615 4.41361C85.4615 4.41361 87.0982 4.50363 87.0982 5.84877V7.7463H92.9637L92.9534 4.95167C92.9534 4.95167 93.4045 0.375105 86.0446 0.173589C86.0446 0.173589 80.2559 -0.206945 78.5957 2.91093C78.5957 2.91093 77.9441 3.60652 77.9441 6.02881V7.77904C77.9441 7.77904 77.8776 9.79829 78.9087 11.0995C78.9087 11.0995 79.4917 11.9526 80.9279 12.8937C80.9279 12.8937 83.8443 14.4639 85.5945 15.363C85.5945 15.363 87.3611 16.3716 87.1289 17.9766C87.1289 17.9766 86.9847 19.6245 85.2784 19.557C85.2784 19.557 83.7185 19.4874 83.7185 17.8712V15.9747H77.4684V18.7295C77.4684 18.7295 77.2935 23.9975 85.3245 23.9975C85.3245 23.9975 92.9984 24.153 93.3565 18.5914V16.3481C93.3555 16.3481 93.6275 12.9397 90.6447 11.1445ZM60.6157 0.829283L58.6517 13.1371H58.1924L56.3163 0.93976H46.5188L46.0278 23.2283H51.8288L51.8983 6.43492H52.3546L55.4295 23.2252H61.5322L64.5693 6.44105H64.9734L65.1135 23.2283H70.9452L70.3171 0.829283H60.6157ZM26.0838 0.922372L22.2243 23.2027H28.4692L30.7555 5.92754H31.269L33.5542 23.2027H39.7981L35.9397 0.922372H26.0838ZM157.123 10.8376V14.1242H158.724V17.6523C158.724 19.377 157.25 19.4087 157.25 19.4087C155.458 19.4087 155.526 17.7699 155.526 17.7699V5.56645C155.526 4.30927 157.116 4.24176 157.116 4.24176C158.643 4.24176 158.653 5.74137 158.653 5.74137V7.59695H164.533C164.725 3.97478 164.003 3.09813 164.003 3.09813C162.544 -0.177273 157.026 0.00173807 157.026 0.00173807C148.547 0.00173807 149.488 6.50754 149.488 6.50754V18.307C149.671 24.4087 158.026 23.7888 158.167 23.7837C161.883 23.3725 163.005 22.191 163.005 22.191C164.039 21.4238 164.305 20.361 164.305 20.361C164.6 19.7421 164.674 17.7699 164.674 17.7699V10.8376H157.123ZM137.633 14.4639H137.377L131.41 0.835417H124.271V23.2303H130.082L129.734 9.60394H129.994L136.175 23.2303H143.097V0.833372H137.213L137.633 14.4639ZM110.088 17.6503C110.088 17.6503 110.172 19.4885 108.468 19.4885C108.468 19.4885 106.676 19.5846 106.676 17.6963L106.658 0.848715H100.285V17.5623C100.285 17.5623 99.6311 23.8881 108.558 23.8881C108.558 23.8881 116.316 23.9801 116.316 17.8528V0.849738H110.088V17.6503ZM13.9345 11.1445C13.9345 11.1445 12.3418 10.1584 11.3547 9.77783C11.3547 9.77783 8.30434 8.36415 7.69877 7.69004C7.69877 7.69004 6.50911 6.56687 7.20674 5.26775C7.20674 5.26775 7.49725 4.41566 8.7534 4.41566C8.7534 4.41566 10.3911 4.50465 10.3911 5.8498V7.74733H16.2586L16.2473 4.95167C16.2473 4.95167 16.6954 0.375104 9.33852 0.174611C9.33852 0.174611 8.78409 0.138806 7.97087 0.179723C7.97087 0.179723 3.51398 0.419088 1.92026 2.86388C1.91106 2.88229 1.89776 2.8956 1.88855 2.91196C1.88855 2.91196 1.23798 3.60652 1.23798 6.02983V7.78006C1.23798 7.78006 1.17046 9.79932 2.20259 11.1005C2.20259 11.1005 2.78566 11.9536 4.22184 12.8947C4.22184 12.8947 7.13718 14.4649 8.88741 15.364C8.88741 15.364 10.656 16.3706 10.4218 17.9776C10.4218 17.9776 10.2776 19.6255 8.57234 19.558C8.57234 19.558 7.01238 19.4885 7.01238 17.8722V15.9747H0.761291V18.7315C0.761291 18.7315 0.586371 23.9996 8.61735 23.9996C8.61735 23.9996 16.2893 24.155 16.6504 18.5934V16.3522C16.6504 16.3501 16.9184 12.9397 13.9345 11.1445Z" fill="#ADADAD"/>
</g>
<defs>
<clipPath id="clip0_12_285">
<rect width="165" height="24" fill="white" transform="translate(0.399902)"/>
</clipPath>
</defs>
</svg>
