<svg width="63" height="69" viewBox="0 0 63 69" fill="none" xmlns="http://www.w3.org/2000/svg">
<path d="M42.8116 67.059C47.9339 48.7799 46.0907 39.5657 37.1106 37.7954C38.4823 44.0022 40.0254 50.3796 33.4672 54.6881C30.038 56.949 27.3161 56.0745 21.2294 51.4247C18.4218 57.1623 19.3648 62.8785 20.6722 69C11.9493 67.4856 5.06951 63.881 1.87612 55.4986C-1.42444 47.8627 0.397289 39.0111 6.3983 33.2522C8.49866 31.1193 10.7705 29.1784 13.1923 27.4294C23.0083 20.0921 24.9157 12.9682 19.7291 1.94096C19.4934 1.30108 19.3005 0.661206 19.1719 0C30.0809 1.64235 40.4112 6.01484 49.1984 12.6696C68.3374 28.2399 66.0227 56.2451 44.8905 66.5258C44.1618 66.5685 43.476 66.7391 42.8116 67.059V67.059Z" fill="#EE4854"/>
</svg>
