<svg width="70" height="55" viewBox="0 0 70 55" fill="none" xmlns="http://www.w3.org/2000/svg">
<path fill-rule="evenodd" clip-rule="evenodd" d="M14.6699 0.840088C10.7329 0.840088 7.81962 4.22548 7.95008 7.89685C8.07527 11.424 7.91261 15.9923 6.74204 19.7177C5.56728 23.4535 3.58192 25.8209 0.338379 26.1248V29.5554C3.58192 29.8599 5.56729 32.2261 6.7419 35.9625C7.91261 39.6879 8.07514 44.2561 7.94994 47.7833C7.81949 51.4542 10.7327 54.8401 14.6704 54.8401H55.0121C58.9492 54.8401 61.8618 51.4547 61.7314 47.7833C61.6062 44.2561 61.7689 39.6879 62.9394 35.9625C64.1142 32.2261 66.0947 29.859 69.3384 29.5554V26.1248C66.0948 25.8202 64.1143 23.454 62.9394 19.7177C61.7687 15.9928 61.6062 11.424 61.7314 7.89685C61.8618 4.22601 58.9492 0.840088 55.0121 0.840088H14.6694H14.6699ZM47.1181 34.0806C47.1181 39.1359 43.2798 42.2019 36.9101 42.2019H26.0672C25.757 42.2019 25.4595 42.0808 25.2402 41.8653C25.0209 41.6499 24.8977 41.3576 24.8977 41.0529V14.6274C24.8977 14.3227 25.0209 14.0304 25.2402 13.815C25.4595 13.5995 25.757 13.4784 26.0672 13.4784H36.8484C42.1597 13.4784 45.6454 16.3049 45.6454 20.6443C45.6454 23.6901 43.3004 26.4168 40.3131 26.8945V27.0534C44.3798 27.4916 47.1181 30.2587 47.1181 34.0806V34.0806ZM35.7278 17.1206H29.5453V25.6999H34.7525C38.778 25.6999 40.9976 24.1074 40.9976 21.261C40.9972 18.5935 39.0889 17.1206 35.7278 17.1206ZM29.5453 29.1039V38.5586H35.9553C40.1465 38.5586 42.3665 36.9064 42.3665 33.8014C42.3665 30.6964 40.0843 29.1034 35.6858 29.1034H29.5453V29.1039Z" fill="#7952B3"/>
</svg>
