<svg width="58" height="70" viewBox="0 0 58 70" fill="none" xmlns="http://www.w3.org/2000/svg">
<path d="M54.2382 9.16261C47.8041 -0.0411127 35.0955 -2.76917 25.908 3.08228L9.7732 13.3622C8.68776 14.0442 7.67514 14.8372 6.75385 15.7284C5.8314 16.6197 5.00489 17.6045 4.28704 18.6669C3.56919 19.7292 2.96347 20.8632 2.47913 22.0504C1.99596 23.2381 1.63724 24.4727 1.40871 25.7344C1.21798 26.7921 1.11394 27.8648 1.10007 28.9398C1.08505 30.016 1.16018 31.0911 1.32317 32.1534C1.48616 33.2169 1.737 34.2653 2.07223 35.2872C2.40746 36.3091 2.82707 37.3009 3.32644 38.2534C2.98291 38.7754 2.66578 39.3144 2.37625 39.8683C2.0861 40.422 1.82486 40.9907 1.59251 41.571C1.36016 42.1513 1.15787 42.7431 0.985633 43.3442C0.813396 43.9453 0.672369 44.5545 0.561398 45.1695C0.10029 47.7555 0.16121 50.4077 0.740571 52.9699C1.02956 54.2472 1.44455 55.4933 1.98091 56.6886C2.51727 57.8838 3.17039 59.0236 3.93332 60.0894C10.3674 69.2931 23.0748 72.0211 32.2623 66.1697L48.3971 55.9326C49.4826 55.2494 50.4929 54.4553 51.4142 53.5629C52.3353 52.6712 53.1616 51.6864 53.8798 50.6244C54.5977 49.5633 55.2034 48.4293 55.6877 47.2421C56.1721 46.0561 56.5316 44.8215 56.7616 43.5604C56.9523 42.5027 57.0552 41.4311 57.0691 40.3561C57.083 39.281 57.0078 38.206 56.8437 37.1437C56.6807 36.0813 56.4298 35.034 56.0935 34.0122C55.7571 32.9915 55.3375 31.9997 54.8381 31.0472C55.1814 30.5258 55.4993 29.986 55.7894 29.4323C56.0784 28.8786 56.3408 28.3099 56.5732 27.7296C56.8055 27.1493 57.009 26.5574 57.1824 25.9563C57.3546 25.3564 57.4979 24.7472 57.6101 24.1322C57.839 22.8422 57.9384 21.5325 57.9083 20.2228C57.8783 18.9131 57.7176 17.6103 57.4286 16.3318C57.1396 15.0545 56.7246 13.8084 56.1883 12.6131C55.6526 11.4177 54.9993 10.2785 54.2382 9.21231" fill="#FF3E00"/>
<path d="M24.3313 60.9794C23.0685 61.3075 21.763 61.4408 20.46 61.3748C19.1572 61.3077 17.8718 61.0442 16.6488 60.5899C15.4258 60.1363 14.279 59.499 13.248 58.6999C12.2178 57.9002 11.3155 56.9484 10.572 55.877C10.113 55.2355 9.72002 54.5512 9.39866 53.8321C9.07637 53.1136 8.8266 52.3647 8.65307 51.5965C8.48083 50.8278 8.38373 50.0441 8.3664 49.2569C8.34906 48.4697 8.41032 47.6825 8.54904 46.9068C8.571 46.7808 8.59643 46.6548 8.62417 46.53C8.65076 46.404 8.68081 46.2791 8.71318 46.1554C8.74439 46.0306 8.77907 45.9069 8.81606 45.7832C8.8519 45.6607 8.8912 45.5382 8.93166 45.4168L9.23567 44.4886L10.0645 45.107C10.5396 45.4538 11.0297 45.7809 11.5326 46.0861C12.0354 46.3924 12.5509 46.6768 13.0781 46.938C13.604 47.2004 14.1427 47.4409 14.6895 47.657C15.2362 47.8743 15.7922 48.0674 16.3563 48.2373L16.9748 48.4165L16.9193 49.0349C16.8895 49.4558 16.9333 49.8787 17.0488 50.2845C17.1054 50.488 17.1805 50.6845 17.2719 50.8741C17.3632 51.0636 17.4707 51.2451 17.5932 51.4162C17.8177 51.7389 18.0902 52.0254 18.4012 52.2658C18.711 52.5063 19.0567 52.6982 19.4254 52.8346C19.7942 52.971 20.1802 53.0496 20.5733 53.0692C20.9651 53.09 21.3582 53.0496 21.7385 52.9502C21.8263 52.927 21.9119 52.9004 21.9974 52.8704C22.0829 52.8403 22.1673 52.808 22.2494 52.771C22.3326 52.7351 22.4135 52.6958 22.4945 52.6531C22.5742 52.6115 22.6517 52.5664 22.728 52.5178L38.8385 42.2368C39.036 42.1129 39.22 41.9688 39.3876 41.8067C39.5552 41.6437 39.7043 41.4646 39.8349 41.2715C39.9655 41.0785 40.0742 40.8716 40.1621 40.6554C40.2488 40.4392 40.3135 40.215 40.3551 39.9861C40.3956 39.7515 40.4129 39.5145 40.4071 39.2764C40.4013 39.0394 40.3713 38.8036 40.3181 38.5712C40.2661 38.34 40.1898 38.1146 40.0915 37.8973C39.9944 37.6811 39.8742 37.4754 39.7355 37.2823C39.5113 36.9598 39.2396 36.6743 38.9287 36.4339C38.6177 36.1934 38.2721 36.0015 37.9045 35.8651C37.5361 35.7287 37.149 35.6492 36.7566 35.6293C36.3636 35.6097 35.9706 35.6501 35.5903 35.7484C35.5036 35.7715 35.4169 35.7981 35.3313 35.8281C35.2458 35.8582 35.1626 35.8906 35.0793 35.9264C34.9961 35.9634 34.9152 36.0027 34.8354 36.0455C34.7557 36.0871 34.6771 36.1333 34.6008 36.1819L28.4141 40.1098C28.1621 40.2693 27.9032 40.4196 27.6396 40.5606C27.3749 40.7005 27.1067 40.8311 26.8328 40.9513C26.5588 41.0715 26.2802 41.1814 25.9982 41.2796C25.7161 41.379 25.4306 41.4669 25.1416 41.5443C23.8805 41.8703 22.5777 42.0021 21.2772 41.935C19.9768 41.868 18.6948 41.6033 17.4742 41.1513C16.2535 40.6982 15.1091 40.0612 14.0803 39.2636C13.0515 38.466 12.1498 37.517 11.4066 36.4477C10.95 35.8062 10.5581 35.1207 10.2379 34.4017C9.91653 33.6827 9.668 32.9336 9.49576 32.1661C9.32352 31.3974 9.22874 30.6136 9.21255 29.8264C9.19521 29.0404 9.25648 28.2532 9.39635 27.4787C9.66964 25.9538 10.2578 24.5026 11.1233 23.2178C11.9895 21.933 13.1143 20.8432 14.4259 20.0181L30.5861 9.73822C30.837 9.57869 31.0936 9.42842 31.356 9.28739C31.6184 9.14752 31.8866 9.0169 32.1582 8.89668C32.4305 8.77641 32.7074 8.6669 32.9882 8.56839C33.2679 8.46898 33.5523 8.37997 33.8401 8.30252C35.1024 7.97538 36.4075 7.84129 37.7091 7.90718C39.0119 7.97423 40.2961 8.23778 41.5191 8.69208C42.7421 9.14521 43.8877 9.7833 44.9188 10.5821C45.9486 11.3821 46.8506 12.3344 47.5937 13.4061C48.0514 14.0465 48.4456 14.7308 48.7681 15.4498C49.0906 16.1688 49.3403 16.9167 49.5149 17.6854C49.6883 18.4541 49.7854 19.2379 49.8027 20.0251C49.8212 20.8123 49.7611 21.5995 49.6224 22.3751C49.5981 22.5023 49.5727 22.6294 49.5438 22.7554C49.516 22.8814 49.486 23.0074 49.4536 23.1323C49.4224 23.2583 49.3877 23.3831 49.3519 23.5068C49.3161 23.6316 49.2791 23.7553 49.2386 23.8779L48.93 24.8061L48.1069 24.1877C47.6307 23.8374 47.1394 23.5091 46.6354 23.2005C46.1314 22.893 45.6135 22.6063 45.0853 22.3416C44.0276 21.814 42.9275 21.3763 41.7966 21.0331L41.177 20.8539L41.2336 20.2354C41.251 20.0239 41.2498 19.8112 41.2302 19.6008C41.2117 19.3904 41.1735 19.1812 41.118 18.9766C41.0614 18.7732 40.9886 18.5732 40.8972 18.3825C40.8071 18.1906 40.6996 18.0079 40.577 17.8345C40.3515 17.5177 40.079 17.2371 39.769 17.0022C39.4595 16.7663 39.1156 16.5792 38.7495 16.4474C38.0137 16.1804 37.214 16.1446 36.4572 16.3445C36.3694 16.3676 36.2827 16.3942 36.1983 16.4231C36.1128 16.4532 36.0284 16.4867 35.9451 16.5225C35.8631 16.5584 35.781 16.5988 35.7012 16.6404C35.6215 16.6832 35.5429 16.7283 35.4666 16.7768L19.326 27.0394C19.1295 27.1631 18.9457 27.3076 18.7792 27.4694C18.6128 27.6313 18.4625 27.8104 18.3319 28.0023C18.2023 28.1953 18.0927 28.401 18.0047 28.6161C17.9169 28.8323 17.8522 29.0554 17.8105 29.2843C17.7701 29.5189 17.7527 29.7571 17.7585 29.9952C17.7724 30.4718 17.8796 30.9412 18.0741 31.3766C18.1722 31.5933 18.291 31.8 18.429 31.9938C18.6521 32.3129 18.9226 32.5972 19.2312 32.8354C19.5392 33.0746 19.8818 33.2656 20.2473 33.4018C20.9822 33.675 21.7826 33.7189 22.543 33.5278C22.6297 33.5035 22.7164 33.4769 22.8019 33.4469C22.8863 33.4168 22.9707 33.3833 23.0539 33.3475C23.1368 33.3114 23.2182 33.2721 23.2978 33.2295C23.3776 33.1879 23.4562 33.1429 23.5325 33.0943L29.7192 29.1733C29.9723 29.0115 30.2301 28.8589 30.4948 28.7179C30.7584 28.5757 31.0277 28.445 31.3028 28.3237C31.577 28.2034 31.8558 28.0939 32.1386 27.9954C32.4218 27.896 32.7085 27.8081 32.9986 27.7318C34.2609 27.4035 35.5648 27.2694 36.8676 27.3342C38.1703 27.4001 39.4546 27.6636 40.6776 28.1168C41.8995 28.5699 43.0462 29.2068 44.0761 30.0067C45.1072 30.8055 46.0089 31.7569 46.7521 32.8284C47.2099 33.47 47.6029 34.1543 47.9254 34.8733C48.2479 35.5919 48.4981 36.3408 48.6722 37.1089C48.8456 37.8765 48.9427 38.6602 48.9612 39.4474C48.9797 40.2358 48.9184 41.023 48.7808 41.7975C48.6445 42.5579 48.4295 43.3021 48.1393 44.0181C47.8493 44.7342 47.4851 45.418 47.0527 46.0583C46.6215 46.6987 46.1245 47.2929 45.5696 47.8304C45.0147 48.3679 44.4056 48.8465 43.7513 49.258L27.6096 59.5379C27.3564 59.6986 27.0975 59.85 26.8339 59.9911C26.5692 60.1321 26.2999 60.2627 26.0247 60.3829C25.7508 60.5043 25.4722 60.6141 25.189 60.7135C24.9069 60.813 24.6203 60.902 24.3313 60.9794" fill="white"/>
</svg>
