<svg width="70" height="42" viewBox="0 0 70 42" fill="none" xmlns="http://www.w3.org/2000/svg">
<path d="M16.8231 11.2346H29.8847V12.2677H18.0204V20.0437H29.1772V21.0768H18.0204V29.614H30.0207V30.6472H16.8231V11.2346ZM31.0548 11.2346H32.4426L38.5924 19.7718L44.8783 11.2346L53.4281 0.390381L39.3815 20.669L46.6198 30.6472H45.1776L38.5924 21.5662L31.98 30.6472H30.565L37.8577 20.669L31.0548 11.2346ZM47.1368 12.2677V11.2346H62.0216V12.2677H55.1642V30.6472H53.9669V12.2677H47.1368Z" fill="black"/>
<path d="M0.482544 11.2346H1.97918L22.6169 41.9687L14.0883 30.6472L1.73428 12.7028L1.67985 30.6472H0.482544V11.2346Z" fill="black"/>
<path d="M61.901 29.302C62.1485 29.302 62.3291 29.1134 62.3291 28.8696C62.3291 28.6258 62.1485 28.4372 61.901 28.4372C61.6564 28.4372 61.4729 28.6258 61.4729 28.8696C61.4729 29.1134 61.6564 29.302 61.901 29.302ZM63.0775 28.1644C63.0775 28.8841 63.5988 29.3542 64.3588 29.3542C65.1684 29.3542 65.6576 28.8696 65.6576 28.028V25.0652H65.0053V28.0251C65.0053 28.4924 64.7694 28.7419 64.353 28.7419C63.9802 28.7419 63.7269 28.5098 63.7182 28.1644H63.0775ZM66.5109 28.1267C66.5575 28.8754 67.1836 29.3542 68.1155 29.3542C69.1114 29.3542 69.7346 28.8522 69.7346 28.0513C69.7346 27.4215 69.3793 27.0733 68.5173 26.8731L68.0543 26.7599C67.5068 26.6322 67.2855 26.461 67.2855 26.1621C67.2855 25.7849 67.6291 25.5382 68.1446 25.5382C68.6338 25.5382 68.9716 25.7791 69.0328 26.165H69.6676C69.6298 25.4599 69.0066 24.9636 68.1533 24.9636C67.236 24.9636 66.6245 25.4599 66.6245 26.2056C66.6245 26.8208 66.971 27.1865 67.7311 27.3635L68.2727 27.4941C68.8289 27.6247 69.0736 27.8162 69.0736 28.1354C69.0736 28.5069 68.6892 28.7767 68.165 28.7767C67.6029 28.7767 67.2127 28.5243 67.1574 28.1267H66.5109Z" fill="black"/>
</svg>
