<svg width="70" height="65" viewBox="0 0 70 65" fill="none" xmlns="http://www.w3.org/2000/svg">
<path d="M34.9945 64.0763L47.7458 24.832H22.2429L34.9942 64.0763H34.9945Z" fill="#E24329"/>
<path d="M34.9945 64.0758L22.2429 24.8315H4.37256L34.9945 64.0758Z" fill="#FC6D26"/>
<path d="M4.37251 24.8315L0.497642 36.7578C0.325353 37.288 0.32533 37.8591 0.497574 38.3893C0.669819 38.9195 1.00549 39.3816 1.45648 39.7093L34.9944 64.076L4.37224 24.8318L4.37251 24.8315Z" fill="#FCA326"/>
<path d="M4.37244 24.8317H22.2428L14.5631 1.19507C14.1679 -0.0212126 12.4473 -0.0209419 12.0524 1.19507L4.37244 24.8317Z" fill="#E24329"/>
<path d="M34.9947 64.0758L47.746 24.8315H65.6166L34.9944 64.0758H34.9947Z" fill="#FC6D26"/>
<path d="M65.6165 24.8315L69.4914 36.7578C69.6636 37.288 69.6636 37.8591 69.4913 38.3893C69.319 38.9195 68.9833 39.3816 68.5323 39.7093L34.9946 64.076L65.6165 24.8318V24.8315Z" fill="#FCA326"/>
<path d="M65.6165 24.8317H47.7458L55.4258 1.19507C55.821 -0.0212126 57.5416 -0.0209419 57.9366 1.19507L65.6165 24.8317Z" fill="#E24329"/>
</svg>
