<svg width="62" height="70" viewBox="0 0 62 70" fill="none" xmlns="http://www.w3.org/2000/svg">
<path d="M61.7728 0.553711L56.2099 62.8733L31.204 69.8057L6.26705 62.883L0.709961 0.553711H61.7728Z" fill="#264DE4"/>
<path d="M51.4471 58.905L56.2011 5.65015H31.2412V64.5069L51.4471 58.905Z" fill="#2965F1"/>
<path d="M13.4495 28.7671L14.1346 36.4114H31.2414V28.7671H13.4495Z" fill="#EBEBEB"/>
<path d="M31.2415 13.2944H31.2151H12.0729L12.7678 20.939H31.2415V13.2944Z" fill="#EBEBEB"/>
<path d="M31.2413 56.5738V48.6204L31.2078 48.6293L22.6941 46.3304L22.1499 40.2336H18.0129H14.4761L15.5471 52.2365L31.2061 56.5836L31.2413 56.5738Z" fill="#EBEBEB"/>
<path d="M40.6281 36.4113L39.7408 46.3256L31.2148 48.6268V56.5799L46.8864 52.2365L47.0013 50.945L48.7977 30.8197L48.9842 28.767L50.3643 13.2944H31.2148V20.939H41.9866L41.291 28.767H31.2148V36.4113H40.6281Z" fill="white"/>
</svg>
