<svg width="70" height="70" viewBox="0 0 70 70" fill="none" xmlns="http://www.w3.org/2000/svg">
<path d="M69.252 0H0V69.252H69.252V0Z" fill="#F7DF1E"/>
<path d="M46.5197 54.1033C47.9147 56.3809 49.7295 58.0551 52.9393 58.0551C55.6357 58.0551 57.3582 56.7074 57.3582 54.8453C57.3582 52.6138 55.5884 51.8235 52.6205 50.5253L50.9936 49.8273C46.2977 47.8267 43.178 45.3204 43.178 40.0221C43.178 35.1414 46.8968 31.426 52.7084 31.426C56.846 31.426 59.8205 32.866 61.964 36.6364L56.8965 39.8902C55.7808 37.8895 54.5771 37.1014 52.7084 37.1014C50.8024 37.1014 49.5943 38.3106 49.5943 39.8902C49.5943 41.8424 50.8035 42.6328 53.5955 43.8419L55.2224 44.5388C60.7516 46.9099 63.8734 49.3271 63.8734 54.7617C63.8734 60.6207 59.2709 63.8305 53.0899 63.8305C47.0463 63.8305 43.1418 60.9505 41.2313 57.1757L46.5197 54.1033ZM23.5314 54.6672C24.5537 56.481 25.4836 58.0144 27.7195 58.0144C29.8575 58.0144 31.2062 57.1779 31.2062 53.9252V31.7976H37.7137V54.0132C37.7137 60.7515 33.7631 63.8184 27.9965 63.8184C22.7861 63.8184 19.7687 61.1219 18.2341 57.8742L23.5314 54.6672Z" fill="black"/>
</svg>
