<svg width="70" height="69" viewBox="0 0 70 69" fill="none" xmlns="http://www.w3.org/2000/svg">
<path d="M3.51648 3.75098H66.9974V65.5006H3.51648V3.75098Z" fill="#2E001E"/>
<path d="M0.631104 0.865479V68.3861H69.8831V0.865479H0.631104ZM3.5166 3.75098H66.9976V65.5006H3.5166V3.75098Z" fill="#FF2BC2"/>
<path d="M50.9252 29.23C50.4924 29.0281 49.9442 28.9415 49.2516 28.9415C45.6159 28.9415 43.1921 31.7404 43.1921 36.3861C43.1921 41.6954 45.6736 43.8306 48.9054 43.8306C49.5979 43.8306 50.3481 43.7441 50.8964 43.5132V29.23H50.9252ZM37.9982 36.6169C37.9982 29.8937 42.3264 24.6421 49.4248 24.6421C50.0307 24.6421 50.3481 24.6421 50.9252 24.6998V17.1975C50.9252 17.0244 51.0695 16.909 51.2138 16.909H55.8594C56.0903 16.909 56.148 16.9955 56.148 17.1398V43.5132C56.148 44.2923 56.148 45.2734 56.2923 46.341C56.2923 46.543 56.2923 46.5718 56.1191 46.6584C53.6953 47.8126 51.1561 48.332 48.7323 48.332C42.4707 48.332 37.9982 44.4654 37.9982 36.6169V36.6169ZM28.1587 31.9424L36.238 47.6106C36.3823 47.8415 36.2958 48.0723 36.0649 48.0723H31.0442C30.7267 48.0723 30.5825 47.9857 30.4382 47.6972C28.5915 43.8883 26.7159 39.9352 24.7826 35.8378H24.7249C22.9936 39.7044 21.0892 43.9172 19.2425 47.726C19.0982 47.9569 18.9539 48.0434 18.7231 48.0434H13.9331C13.6446 48.0434 13.6157 47.8126 13.76 47.6395L21.6663 32.4329L14.0197 17.313C13.8466 17.0821 14.0197 16.8801 14.2217 16.8801H19.1848C19.4733 16.8801 19.6176 16.9378 19.7041 17.1975C21.522 21.0352 23.3687 24.8152 25.1 28.6818H25.1577C26.8313 24.8729 28.678 21.0352 30.4382 17.2552C30.5825 17.0244 30.669 16.8801 30.9576 16.8801H35.6032C35.8341 16.8801 35.9206 17.0533 35.7764 17.313L28.1587 31.9424V31.9424Z" fill="#FF2BC2"/>
</svg>
