<svg width="98" height="24" viewBox="0 0 98 24" fill="none" xmlns="http://www.w3.org/2000/svg">
<path d="M6.06458 9.33059C10.4676 7.81296 11.217 3.85966 10.6549 0.224862C10.6549 0.0937092 10.7673 2.88561e-05 10.8797 0.037501C15.0954 2.09847 19.8356 6.59512 19.8356 13.3401C19.8356 18.5112 15.8261 23.0828 9.9992 23.0828C7.91994 23.1774 5.86845 22.5768 4.16847 21.3759C2.4685 20.175 1.21686 18.4422 0.611099 16.4509C0.00533858 14.4597 0.0799686 12.3234 0.823209 10.3792C1.56644 8.43513 2.93595 6.79387 4.71558 5.71453C4.828 5.63958 4.97788 5.71453 4.97788 5.84568C5.03409 6.53891 5.22145 8.28137 5.98963 9.33059H6.06458Z" fill="url(#paint0_radial_12_288)"/>
<path d="M32.2389 18.9796L32.5574 18.6049L33.5504 21.7526L33.4193 21.8837C32.6698 22.577 31.5457 22.9329 30.103 22.9329H30.0468C28.7352 22.9329 27.7048 22.5582 26.9928 21.865C26.2808 21.153 25.9061 20.0851 25.9061 18.7361V10.1549H23.3767V6.6888H25.9061V2.51065H29.8032V6.6888H32.8946V10.1549H29.7845V17.8929C29.7845 18.2489 29.8781 19.3918 30.9648 19.3918C31.5269 19.3918 32.0515 19.1857 32.2389 18.9609V18.9796ZM34.2999 22.577V6.70753H38.197V22.577H34.2999ZM36.2297 0.224854C36.6921 0.224868 37.1441 0.361765 37.5288 0.618289C37.9136 0.874814 38.2138 1.23948 38.3916 1.66634C38.5693 2.09319 38.6168 2.56313 38.528 3.01692C38.4391 3.4707 38.2179 3.88803 37.8922 4.2163C37.5666 4.54457 37.151 4.76909 36.6979 4.86156C36.2449 4.95403 35.7746 4.91032 35.3463 4.73593C34.9181 4.56153 34.551 4.26427 34.2914 3.8816C34.0319 3.49893 33.8914 3.04799 33.8877 2.5856C33.8877 1.31154 34.9556 0.224854 36.2297 0.224854ZM48.6704 6.31407C52.0429 6.31407 53.8978 8.15021 53.8978 11.5039V22.5582H50.0007V12.4407C49.9257 10.6421 49.0639 9.81772 47.2277 9.81772C45.579 9.81772 44.2487 10.8294 43.5742 11.6913V22.5582H39.6771V6.72627H43.5742V8.41251C44.6984 7.32582 46.497 6.35155 48.6704 6.35155V6.31407ZM66.8631 8.35631V0.899352H70.7602V22.5957H66.8631V20.9469C66.2668 21.5759 65.5494 22.0777 64.7541 22.4222C63.9588 22.7668 63.102 22.9469 62.2353 22.9517C57.9822 22.9517 55.1343 19.6167 55.1343 14.6516C55.1343 9.66783 57.9822 6.33281 62.2353 6.33281C63.1039 6.33677 63.9625 6.51832 64.7583 6.8663C65.5542 7.21428 66.2704 7.72134 66.8631 8.35631ZM66.8631 11.71C66.4288 11.1444 65.8738 10.6827 65.2386 10.3586C64.6033 10.0345 63.9037 9.8561 63.1909 9.83646C60.7739 9.83646 59.1626 11.7663 59.1626 14.6516C59.1626 17.5182 60.7739 19.448 63.1909 19.448C64.5961 19.448 66.1324 18.6986 66.8631 17.6119V11.71ZM79.8659 6.33281C84.475 6.33281 87.6789 9.89266 87.6789 14.9514V16.0193H75.8939C76.2874 18.2489 78.0485 19.6729 80.4468 19.6729C81.9644 19.6729 83.6319 19.0171 84.5874 18.0616L84.8497 17.8367L86.7046 20.4973L86.5172 20.6659C84.7616 22.2225 82.4729 23.0414 80.1282 22.9517C75.2569 22.9517 71.8282 19.523 71.8282 14.6329C71.7903 13.5532 71.971 12.4771 72.3593 11.469C72.7477 10.4609 73.3357 9.54166 74.0882 8.76648C74.8406 7.99129 75.7419 7.37613 76.738 6.95793C77.7341 6.53973 78.8044 6.3271 79.8847 6.33281H79.8659ZM75.8752 13.0778H83.8755C83.6506 10.6983 81.6833 9.61162 79.8659 9.61162C77.1305 9.61162 76.1 11.6726 75.8752 13.0965V13.0778ZM97.1031 6.33281H97.3842V10.2674L97.0469 10.2112C96.7659 10.1549 96.4099 10.1175 96.0539 10.1175C94.7986 10.1175 93.0561 10.9981 92.4004 11.9349V22.5582H88.5033V6.70753H92.4191V8.46872C93.7119 7.11973 95.4169 6.33281 97.1031 6.33281Z" fill="#ADADAD"/>
<defs>
<radialGradient id="paint0_radial_12_288" cx="0" cy="0" r="1" gradientUnits="userSpaceOnUse" gradientTransform="translate(10.0206 23.0925) scale(19.63 23.0634)">
<stop stop-color="#FF7854"/>
<stop offset="1" stop-color="#FD267D"/>
</radialGradient>
</defs>
</svg>
