<svg width="109" height="24" viewBox="0 0 109 24" fill="none" xmlns="http://www.w3.org/2000/svg">
<path d="M106.616 0L100.715 12.6247L98.4957 7.8411H96.0957L99.745 15.6658H101.685L109 0H106.616Z" fill="#ADADAD"/>
<path d="M81.3013 23.4411H86.052V14.7452C86.052 12.7562 87.2027 11.3589 88.9122 11.3589C90.5561 11.3589 91.4109 12.5096 91.4109 14.1699V23.4411H96.1616V13.2658C96.1616 9.81368 94.0903 7.38081 90.7369 7.38081C88.5999 7.38081 87.104 8.30135 85.9862 9.97807H85.8876V7.84108H81.2848L81.3013 23.4411ZM71.9643 7.41368C66.9999 7.41368 63.6794 10.9808 63.6794 15.6822C63.6794 20.3507 66.9999 23.9507 71.9643 23.9507C76.9287 23.9507 80.2492 20.3507 80.2492 15.6822C80.2657 10.9808 76.9287 7.41368 71.9643 7.41368ZM71.9314 20.4329C69.6794 20.4329 68.4794 18.5425 68.4794 15.6822C68.4794 12.789 69.6629 10.9315 71.9314 10.9315C74.1835 10.9315 75.4328 12.789 75.4328 15.6822C75.4492 18.5425 74.1999 20.4329 71.9314 20.4329ZM50.1342 23.4411H63.4821V19.6932H55.9205V19.5945L63.1533 11.4904V7.82464H50.1342V11.589H57.4492V11.6877L50.1342 19.8575V23.4411ZM44.0355 23.4411H48.8191V7.84108H44.0355V23.4411ZM32.9396 23.4411H37.7068V16.274C37.7068 13.0192 39.6629 11.5726 42.6383 11.9836H42.7369V7.87396C42.4903 7.77533 42.2109 7.75889 41.767 7.75889C39.9095 7.75889 38.6602 8.61368 37.5917 10.4384H37.4931V7.84108H32.9396V23.4411ZM24.1944 20.4493C22.0903 20.4493 20.8081 19.0849 20.5616 16.9808H31.8054C31.8383 13.6274 30.9506 10.9479 29.0931 9.27122C27.778 8.05478 26.052 7.38081 23.8492 7.38081C19.1479 7.38081 15.8931 10.9479 15.8931 15.6164C15.8931 20.3178 18.9999 23.9014 24.1616 23.9014C26.1177 23.9014 27.6629 23.3753 28.9451 22.5041C30.3095 21.5671 31.2958 20.1863 31.5588 18.8219H26.9889C26.5451 19.8411 25.5917 20.4493 24.1944 20.4493ZM23.9479 10.7836C25.6246 10.7836 26.7753 12.0329 26.9725 13.8575H20.5944C20.9725 12.0164 21.9753 10.7836 23.9479 10.7836ZM6.3917 23.4411H11.389L16.8136 7.84108H12.03L8.98896 17.8685H8.92321L5.88211 7.84108H0.967041L6.3917 23.4411ZM44.0355 2.28491H48.8191V6.52601H44.0355V2.28491Z" fill="#ADADAD"/>
</svg>
