<svg width="76" height="24" viewBox="0 0 76 24" fill="none" xmlns="http://www.w3.org/2000/svg">
<g clip-path="url(#clip0_12_263)">
<path d="M32.8221 23.6H26.7856L30.5583 0.414295H36.5954L32.8221 23.6ZM21.7074 0.414295L15.9525 16.3616L15.2716 12.9275L15.2722 12.9288L13.241 2.5019C13.241 2.5019 12.9954 0.414295 10.3775 0.414295H0.86359L0.751953 0.806883C0.751953 0.806883 3.66133 1.4122 7.06624 3.45701L12.3107 23.6006H18.6002L28.204 0.414295H21.7074ZM69.187 23.6H74.7298L69.8972 0.413675H65.0447C62.8039 0.413675 62.2581 2.14156 62.2581 2.14156L53.2552 23.6H59.5478L60.8062 20.156H68.48L69.187 23.6ZM62.5446 15.3984L65.7164 6.72176L67.5007 15.3984H62.5446ZM53.7272 5.98992L54.5887 1.01093C54.5887 1.01093 51.9305 0 49.1594 0C46.1639 0 39.0501 1.30925 39.0501 7.67563C39.0501 13.6656 47.3993 13.74 47.3993 16.8863C47.3993 20.0326 39.9104 19.4688 37.4388 17.4848L36.5414 22.6908C36.5414 22.6908 39.2368 24 43.355 24C47.4743 24 53.6888 21.8671 53.6888 16.062C53.6888 10.0336 45.2646 9.47236 45.2646 6.85138C45.2652 4.22979 51.1441 4.56655 53.7272 5.98992Z" fill="#ADADAD"/>
<path d="M15.272 12.9281L13.2409 2.5013C13.2409 2.5013 12.9953 0.413696 10.3774 0.413696H0.863589L0.751953 0.806285C0.751953 0.806285 5.32466 1.75395 9.71069 5.30461C13.9045 8.69837 15.272 12.9281 15.272 12.9281Z" fill="#ADADAD"/>
</g>
<defs>
<clipPath id="clip0_12_263">
<rect width="75" height="24" fill="white" transform="translate(0.600098)"/>
</clipPath>
</defs>
</svg>
