<svg width="102" height="24" viewBox="0 0 102 24" fill="none" xmlns="http://www.w3.org/2000/svg">
<g clip-path="url(#clip0_12_266)">
<path d="M58.2546 12.7717C58.2546 10.4016 57.24 8.3075 53.8087 8.3075C52.0483 8.3075 50.6498 8.80926 49.8916 9.24844L50.4473 11.1499C51.1454 10.7119 52.2593 10.3513 53.3106 10.3513C55.0477 10.3488 55.3323 11.3315 55.3323 11.9633V12.1154C51.5404 12.1092 49.1433 13.4194 49.1433 16.0877C49.1433 17.718 50.3603 19.2466 52.4875 19.2466C53.7854 19.2466 54.8821 18.7228 55.5372 17.8959H55.601C55.601 17.8959 56.0329 19.703 58.4214 19.0123C58.2999 18.2554 58.2546 17.458 58.2546 16.4888V12.7717ZM55.4256 15.2743C55.4256 15.4657 55.4097 15.6644 55.3532 15.8349C55.1348 16.5649 54.3816 17.1758 53.4443 17.1758C52.6531 17.1758 52.0323 16.728 52.0323 15.7896C52.0323 14.3542 53.6173 13.9592 55.4256 13.969" fill="#ADADAD"/>
<path d="M0.199951 5.08264C0.199951 5.08264 2.67679 15.2158 3.0706 16.8572C3.53431 18.7759 4.36484 19.485 6.76197 19.0127L8.31015 12.7291C8.70149 11.1724 8.96767 10.056 9.22042 8.46977H9.26332C9.43876 10.0719 9.6915 11.1724 10.0117 12.734C10.0117 12.734 10.6435 15.5887 10.9711 17.0842C11.29 18.5796 12.188 19.523 14.5398 19.0127L18.225 5.08264H15.25L13.9853 11.1086C13.6503 12.8543 13.3461 14.2295 13.1093 15.8292H13.0664C12.8529 14.2467 12.5818 12.9279 12.2334 11.2177L10.9232 5.08264H7.81944L6.4209 11.0607C6.02219 12.8862 5.64926 14.3497 5.41494 15.8991H5.37447C5.13281 14.4454 4.80526 12.5942 4.45806 10.8374C4.45806 10.8374 3.62753 6.55723 3.33435 5.08264" fill="#ADADAD"/>
<path d="M26.5156 12.7717C26.5156 10.4016 25.4985 8.3075 22.0673 8.3075C20.3118 8.3075 18.9108 8.80926 18.1527 9.24844L18.7084 11.1499C19.404 10.7119 20.5167 10.3513 21.5717 10.3513C23.3088 10.3488 23.5934 11.3315 23.5934 11.9633V12.1154C19.8015 12.1092 17.4019 13.4194 17.4019 16.0877C17.4019 17.718 18.6238 19.2466 20.7412 19.2466C22.0513 19.2466 23.1383 18.7228 23.7934 17.8959H23.8596C23.8596 17.8959 24.2939 19.703 26.6799 19.0123C26.5573 18.2554 26.5156 17.458 26.5156 16.4888V12.7717ZM23.6842 15.2743C23.6842 15.4657 23.6683 15.6644 23.6143 15.8349C23.3934 16.5649 22.6402 17.1758 21.7005 17.1758C20.9141 17.1758 20.2909 16.728 20.2909 15.7896C20.2909 14.3542 21.8759 13.9592 23.6842 13.969" fill="#ADADAD"/>
<path d="M28.0593 5.08264V19.0078H30.8907V16.0549V5.08264H28.0593Z" fill="#ADADAD"/>
<path d="M66.9443 5.08264V15.3569C66.9443 16.775 67.2105 17.7638 67.7834 18.3698C68.2864 18.901 69.1095 19.247 70.0897 19.247C70.9313 19.247 71.7544 19.0851 72.1433 18.944L72.109 16.7321C71.8182 16.7996 71.4858 16.8572 71.0294 16.8572C70.0628 16.8572 69.7438 16.2451 69.7438 14.9717V11.0386H72.2096V8.37776H69.7438V5.08264" fill="#ADADAD"/>
<path d="M59.6262 8.54913V19.0123H62.5532V13.6538C62.5532 13.3655 62.5716 13.1164 62.617 12.8858C62.8354 11.7559 63.6929 11.0407 64.9282 11.0407C65.273 11.0407 65.5073 11.0788 65.7674 11.1192V8.37616C65.549 8.3369 65.4006 8.31604 65.1319 8.31604C64.0364 8.31604 62.7949 9.01162 62.271 10.5267H62.1987V8.54913" fill="#ADADAD"/>
<path d="M32.5349 8.54913V19.0123H35.3871V12.8711C35.3871 12.5828 35.419 12.2884 35.5208 12.0221C35.7527 11.4002 36.3281 10.6801 37.2518 10.6801C38.4 10.6801 38.9423 11.6492 38.9423 13.0477V19.0123H41.7872V12.7975C41.7872 12.5264 41.8253 12.1939 41.9049 11.9534C42.1331 11.2481 42.7563 10.6801 43.6176 10.6801C44.7781 10.6801 45.34 11.6284 45.34 13.2771V19.0123H48.1823V12.8429C48.1823 9.6017 46.5336 8.31604 44.6615 8.31604C43.8384 8.31604 43.1833 8.51846 42.5944 8.88159C42.0963 9.18705 41.6596 9.61765 41.2683 10.1808H41.2253C40.7751 9.05456 39.7176 8.31604 38.3362 8.31604C36.5648 8.31604 35.76 9.21036 35.2865 9.96605H35.2436V8.54913" fill="#ADADAD"/>
<path d="M87.5282 8.07953C88.0876 8.07953 88.5586 7.78756 88.62 7.41217L89.1745 1.13109C89.1745 0.509112 88.4421 0 87.5282 0C86.6093 0 85.8818 0.509112 85.8818 1.13109L86.4412 7.41217C86.5001 7.78756 86.9687 8.07953 87.5282 8.07953Z" fill="#ADADAD"/>
<path d="M84.126 10.0449C84.4032 9.55425 84.3872 9.00956 84.0879 8.76666L78.9109 5.14645C78.3724 4.8324 77.5663 5.20656 77.1051 5.99906C76.6451 6.79033 76.7383 7.67851 77.2658 7.98643L82.9973 10.6436C83.3641 10.781 83.8438 10.5258 84.126 10.04" fill="#ADADAD"/>
<path d="M90.9296 10.0398C91.2227 10.5256 91.7024 10.7808 92.0594 10.6507L97.7909 7.98617C98.3233 7.67212 98.4031 6.79252 97.9528 6.00125C97.4928 5.20875 96.6819 4.83704 96.1446 5.14496L90.9663 8.76149C90.6793 9.00807 90.6585 9.55521 90.9356 10.0447" fill="#ADADAD"/>
<path d="M87.5282 15.9254C88.0876 15.9254 88.5586 16.2173 88.62 16.5927L89.1745 22.8738C89.1745 23.4958 88.4421 24 87.5282 24C86.6093 24 85.8818 23.4958 85.8818 22.8738L86.4412 16.5927C86.5001 16.2173 86.9687 15.9254 87.5282 15.9254Z" fill="#ADADAD"/>
<path d="M90.9296 13.9655C91.2227 13.4784 91.7024 13.2184 92.0594 13.3595L97.7909 16.0191C98.3233 16.327 98.4031 17.214 97.9528 18.0065C97.4928 18.7928 96.6819 19.167 96.1446 18.8591L90.9663 15.2376C90.6793 14.9935 90.6585 14.4488 90.9356 13.9655" fill="#ADADAD"/>
<path d="M84.126 13.9601C84.4032 14.4496 84.3872 14.993 84.0879 15.2384L78.9109 18.8537C78.3724 19.1677 77.5663 18.7923 77.1051 18.006C76.6451 17.2147 76.7383 16.3265 77.2658 16.0186L82.9973 13.359C83.3641 13.2191 83.8438 13.4767 84.126 13.9601Z" fill="#ADADAD"/>
<path d="M99.4683 18.3079H99.5395C99.6364 18.3079 99.6756 18.3386 99.6867 18.4159C99.7075 18.5017 99.7186 18.5594 99.7394 18.5839H99.9235C99.9075 18.5655 99.8866 18.5189 99.8756 18.4109C99.8547 18.3177 99.8069 18.265 99.7394 18.2466V18.2294C99.8326 18.2085 99.8866 18.146 99.8866 18.0687C99.8866 17.9988 99.8547 17.9485 99.8228 17.9166C99.7615 17.8871 99.7027 17.8638 99.5726 17.8638C99.4573 17.8638 99.3726 17.8736 99.3051 17.8896V18.5839H99.4683V18.3079ZM99.4732 17.9914L99.5567 17.9803C99.6548 17.9803 99.7075 18.0257 99.7075 18.0895C99.7075 18.1607 99.6364 18.1938 99.5456 18.1938H99.4732V17.9914ZM99.5775 17.5203C99.1752 17.5203 98.8562 17.8344 98.8562 18.2196C98.8562 18.6146 99.1752 18.9286 99.5775 18.9286C99.9848 18.9286 100.294 18.6146 100.294 18.2196C100.294 17.8344 99.9848 17.5203 99.5775 17.5203ZM99.5775 17.6614C99.8866 17.6614 100.116 17.9116 100.116 18.2196C100.116 18.5299 99.8866 18.7876 99.5775 18.7827C99.2684 18.7827 99.034 18.5299 99.034 18.2196C99.034 17.9116 99.2684 17.6614 99.5726 17.6614" fill="#ADADAD"/>
</g>
<defs>
<clipPath id="clip0_12_266">
<rect width="101" height="24" fill="white" transform="translate(0.199951)"/>
</clipPath>
</defs>
</svg>
